# xmcd
# 
# Track frame offsets:
#     150
#     18315
#     36502
#     52524
#     69949
#     84950
#     102401
#     115693
#     131593
#     148788
#     166501
#     184233
#     201206
#     218881
#     240346
#     258666
#     275001
#     296171
#     317620
#     337966
# 
# Disc length: 4756
# 
# Revision: 0
# Processed by: cddbd v1.5.2PL0 Copyright (c) Steve Scherf et al.
# Submitted via: fre:ac v1.0.27
# 
DISCID=1e129214
DTITLE=Various Artist - NOW that's what i call no.1
DYEAR=0
DGENRE=Pop
TTITLE0=Rihanna Feat. Jay-Z - Umbrella
TTITLE1=Gotye feat. Kimbra - Somebody That I Used To Know
TTITLE2=Bruno Mars - Just The Way You Are
TTITLE3=Katy Perry feat. Snoop Dogg - California Gurls
TTITLE4=Olly Murs - Dance With Me Tonight
TTITLE5=David Guetta feat. Sia - Titanium
TTITLE6=DJ Fresh feat. Rita Ora - Hot Right Now
TTITLE7=Cheryl Cole - Fight For This Love
TTITLE8=Jessie J - Domino
TTITLE9=Lady Gaga - Poker Face
TTITLE10=Tinie Tempah - Pass Out
TTITLE11=Shaggy feat. Ricardo "RikRok" Ducent - It Wasn't Me
TTITLE12=Coolio feat. L.V. - Gangsta's Paradise
TTITLE13=Fugees - Killing Me Softly With His Song
TTITLE14=The Black Eyed Peas - I Gotta Feeling
TTITLE15=Kylie Minogue - Can't Get You Out of My Head
TTITLE16=R Kelly - I Believe I Can Fly
TTITLE17=Oasis - Don't Look Back In Anger
TTITLE18=The Verve - The Drugs Don't Work
TTITLE19=Coldplay - Paradise
EXTD=CD2
EXTT0=
EXTT1=
EXTT2=
EXTT3=
EXTT4=
EXTT5=
EXTT6=
EXTT7=
EXTT8=
EXTT9=
EXTT10=
EXTT11=
EXTT12=
EXTT13=
EXTT14=
EXTT15=
EXTT16=
EXTT17=
EXTT18=
EXTT19=
PLAYORDER=
